<svg width="167" height="47" viewBox="0 0 167 47" fill="none" xmlns="http://www.w3.org/2000/svg">
<path d="M8.78309 41.5406C7.55604 41.5406 7.01787 41.2607 6.97481 40.0552C6.52274 40.9593 5.42485 41.6267 3.70268 41.6267C1.39927 41.6267 0 40.4211 0 38.3976C0 36.2664 1.7437 35.1254 3.83184 35.1254C4.97278 35.1254 5.79081 35.3407 6.37205 35.7713L6.30747 35.1254C6.11372 32.9727 5.6186 31.7026 4.1978 31.7026C2.28188 31.7026 3.14297 34.3289 1.33469 34.3289C0.645816 34.3289 0.15069 33.9199 0.15069 33.2311C0.15069 31.8533 1.91592 30.8631 4.21933 30.8631C6.95328 30.8631 8.71851 31.9394 8.97684 34.6303L9.42891 39.3448C9.55807 40.7656 10.6129 40.2489 10.6129 40.9808C10.6344 41.4114 9.73029 41.5406 8.78309 41.5406ZM2.77701 38.0747C2.77701 39.3663 3.4013 40.3781 4.80056 40.3781C5.76929 40.3781 6.63038 39.7323 6.6519 38.742L6.56579 37.7948C6.4151 36.7185 5.66165 36.1157 4.62835 36.1157C3.42282 36.1157 2.77701 36.8907 2.77701 38.0747Z" fill="black"/>
<path d="M15.6572 41.6267C12.5572 41.6267 10.5983 39.3878 10.5983 36.374C10.5983 33.1019 12.9232 30.8631 15.7648 30.8631C18.262 30.8631 19.9626 32.2408 19.9626 33.554C19.9626 34.2644 19.4459 34.7595 18.6279 34.738C16.7766 34.6949 17.4654 31.7457 15.3773 31.7672C14.0857 31.7672 13.2676 32.822 13.2676 35.0178C13.2676 37.924 14.71 39.7538 16.712 39.7538C18.0897 39.7538 18.8862 39.0865 19.4244 38.0316C19.6827 37.558 20.1994 37.7733 20.1348 38.2254C19.9195 39.926 18.3481 41.6267 15.6572 41.6267Z" fill="black"/>
<path d="M25.2788 41.6267C23.0185 41.6267 21.3824 40.5072 21.3824 37.7948V33.2956C21.3824 32.3915 20.5644 32.2408 20.5644 31.7887V31.7242C20.5644 31.5304 20.715 31.3797 20.9518 31.3367L23.3629 30.9061C23.7934 30.82 24.0733 30.8846 24.0733 31.2721V37.4289C24.0733 39.3232 24.7622 40.1198 26.0753 40.1198C27.3024 40.1198 28.2926 39.1941 28.2926 37.7087V33.2956C28.2926 32.3915 27.4531 32.2408 27.4531 31.7887V31.7242C27.4531 31.5519 27.5822 31.3797 27.8405 31.3367L30.2731 30.9061C30.7467 30.8415 31.005 30.9061 31.005 31.2506V39.3017C31.005 40.9593 32.0814 40.2059 32.0814 40.9378C32.0814 41.3899 31.4786 41.5406 30.3808 41.5406C29.0461 41.5406 28.6155 41.1531 28.5725 39.7538C27.9267 40.9378 26.7427 41.6267 25.2788 41.6267Z" fill="black"/>
<path d="M33.3101 41.4114C33.0303 41.4114 32.8365 41.2822 32.8365 41.067V40.9808C32.8365 40.4857 33.6546 40.3781 33.6546 39.517V34.1137C33.6546 33.2095 32.8365 32.9727 32.8365 32.5637V32.4991C32.8365 32.3484 32.9442 32.2408 33.2456 32.0901L35.549 30.9492C36.0656 30.7124 36.3455 30.9707 36.3455 31.3367V39.517C36.3455 40.3781 37.1635 40.4857 37.1635 40.9808V41.067C37.1635 41.2822 36.9698 41.4114 36.6899 41.4114H33.3101ZM33.224 27.7201C33.224 26.7514 33.956 26.0625 34.9893 26.0625C36.0226 26.0625 36.7545 26.7514 36.7545 27.7201C36.7545 28.7103 36.0226 29.3777 34.9893 29.3777C33.956 29.3777 33.224 28.7103 33.224 27.7201Z" fill="black"/>
<path d="M42.1467 41.6267C40.3169 41.6267 39.1544 40.4857 39.1544 38.333V32.1978H37.8843C37.6475 32.1978 37.4968 32.0255 37.4968 31.8103V31.4874C37.4968 31.229 37.626 31.0783 37.8843 31.0783H38.2933C39.8864 31.0783 40.4461 30.1957 40.6398 28.9471C40.6829 28.6458 40.8551 28.4735 41.0919 28.4735H41.3933C41.6946 28.4735 41.8453 28.6458 41.8453 28.9471V31.0783H44.5362C44.7515 31.0783 44.9237 31.2506 44.9237 31.4874V31.8103C44.9237 32.0255 44.7515 32.1978 44.5362 32.1978H41.8453V38.3976C41.8453 39.3878 42.362 39.926 43.137 39.926C44.1057 39.926 44.3425 39.1941 44.5362 38.5483C44.5793 38.333 44.7515 38.2469 44.9022 38.2469C45.0959 38.2469 45.2897 38.3761 45.2897 38.5913C45.2897 40.0552 44.1703 41.6267 42.1467 41.6267Z" fill="black"/>
<path d="M47.8509 46.0397C46.3871 46.0397 45.3107 45.2002 45.3107 44.0808C45.3107 43.3704 45.7412 42.9183 46.4301 42.9183C47.8294 42.9183 47.4419 44.7696 48.5398 44.7696C49.3578 44.7696 49.9175 44.0592 50.8647 41.8419L46.8607 33.0373C46.3871 31.9825 45.7412 32.004 45.7412 31.5304V31.4443C45.7412 31.229 45.9135 31.0783 46.1503 31.0783H49.7668C49.9821 31.0783 50.1328 31.2075 50.1328 31.4228V31.4874C50.1328 32.004 49.3578 32.0255 49.7884 33.1234L52.1779 39.0219L54.4813 33.3172C54.9549 32.1762 53.8139 32.1116 53.8139 31.4874V31.4228C53.8139 31.2075 53.9646 31.0783 54.223 31.0783H56.6555C56.8923 31.0783 57.0646 31.2075 57.0646 31.4012V31.4874C57.0646 32.004 56.3326 32.1977 55.9667 33.0373L51.7043 42.8752C50.7356 45.1356 49.6592 46.0397 47.8509 46.0397Z" fill="black"/>
<path d="M71.8896 41.6038C69.0911 41.6038 67.4766 40.5059 67.4766 39.2358C67.4766 38.5254 67.9502 38.0948 68.596 38.0948C70.2536 38.0948 69.6723 40.635 72.2987 40.635C73.4611 40.635 74.2576 40.183 74.2576 39.2788C74.2576 36.5449 67.7349 38.2025 67.7349 34.1984C67.7349 32.1749 69.5647 30.8617 72.1264 30.8617C74.7743 30.8617 76.3027 31.9165 76.3027 33.2943C76.3027 33.8755 75.8291 34.3276 75.2479 34.3276C73.4611 34.3276 74.0854 31.852 71.782 31.852C70.7918 31.852 70.0168 32.261 70.0168 33.2082C70.0168 35.813 76.561 34.263 76.561 38.3747C76.561 40.2906 74.6882 41.6038 71.8896 41.6038Z" fill="black"/>
<path d="M82.7274 41.6253C79.6275 41.6253 77.6685 39.3865 77.6685 36.3727C77.6685 33.1005 79.9934 30.8617 82.835 30.8617C85.3322 30.8617 87.0328 32.2394 87.0328 33.5526C87.0328 34.263 86.5162 34.7581 85.6982 34.7366C83.8468 34.6935 84.5357 31.7443 82.4475 31.7658C81.1559 31.7658 80.3379 32.8207 80.3379 35.0165C80.3379 37.9226 81.7802 39.7524 83.7822 39.7524C85.16 39.7524 85.9565 39.0851 86.4947 38.0303C86.753 37.5567 87.2696 37.7719 87.2051 38.224C86.9898 39.9247 85.4183 41.6253 82.7274 41.6253Z" fill="black"/>
<path d="M95.5997 41.4316C95.2983 41.4316 95.1261 41.3024 95.1261 41.0871V41.001C95.1261 40.5059 95.9226 40.3983 95.858 39.5156L95.5566 35.2963C95.449 33.488 94.7386 32.3471 93.49 32.3471C92.2199 32.3471 91.3588 33.3804 91.3588 34.9519V39.5372C91.3588 40.3982 92.2629 40.4844 92.2629 41.001V41.0656C92.2629 41.2809 92.0692 41.41 91.7678 41.41H88.2374C87.9575 41.41 87.7853 41.2809 87.7853 41.0656V41.001C87.7853 40.4844 88.6679 40.3982 88.6679 39.5372V28.343C88.6679 27.4174 87.7207 27.3528 87.7207 26.9007V26.8361C87.7207 26.6208 87.8714 26.4702 88.1082 26.3625L90.5838 25.3292C91.0359 25.1355 91.3157 25.2862 91.3157 25.6952L91.2942 32.4978C91.94 31.486 93.0594 30.8617 94.3941 30.8617C96.5253 30.8617 98.0322 32.1103 98.2906 35.4901L98.5704 39.5156C98.635 40.3983 99.41 40.5059 99.41 41.001V41.0871C99.41 41.3024 99.2162 41.4316 98.9148 41.4316H95.5997Z" fill="black"/>
<path d="M104.596 41.6253C101.819 41.6253 99.6664 39.817 99.6664 36.5234C99.6664 33.445 101.884 30.8617 104.768 30.8617C107.524 30.8617 108.794 32.6269 108.794 33.8109C108.794 34.5429 108.471 35.1026 107.395 35.4255L102.443 36.8893C102.874 38.5469 103.993 39.7524 105.629 39.7524C107.115 39.7524 107.911 39.0205 108.406 38.2025C108.6 37.8796 109.16 38.0087 109.117 38.4393C108.966 39.7524 107.352 41.6253 104.596 41.6253ZM102.228 35.1887C102.228 35.3824 102.228 35.5762 102.25 35.7699L105.091 34.8873C105.909 34.629 106.146 34.3491 106.146 33.8755C106.146 32.7561 105.5 31.7228 104.424 31.7228C103.068 31.7228 102.228 33.1436 102.228 35.1887Z" fill="black"/>
<path d="M114.377 41.6253C111.858 41.6253 109.684 39.6017 109.684 36.3727C109.684 33.0144 112.009 30.8617 114.657 30.8617C115.884 30.8617 116.874 31.2492 117.585 31.9596V28.0847C117.585 27.116 116.573 27.0729 116.573 26.5778V26.5347C116.573 26.3625 116.702 26.1688 116.96 26.0827L119.414 25.3077C119.953 25.1355 120.211 25.2646 120.211 25.7167V39.5372C120.211 40.3982 121.029 40.5489 121.029 41.0225V41.0871C121.029 41.3024 120.9 41.41 120.641 41.41H118.274C117.994 41.41 117.843 41.2378 117.821 40.9795L117.735 39.7309C117.133 40.8934 115.884 41.6253 114.377 41.6253ZM112.397 35.5546C112.397 38.0948 113.451 40.0538 115.367 40.0538C116.551 40.0538 117.585 39.1497 117.585 37.6428V34.9734C117.585 33.1436 116.336 31.9811 114.98 31.9811C113.236 31.9811 112.397 33.445 112.397 35.5546Z" fill="black"/>
<path d="M126.174 41.6253C123.913 41.6253 122.277 40.5059 122.277 37.7935V33.2943C122.277 32.3901 121.459 32.2394 121.459 31.7874V31.7228C121.459 31.529 121.61 31.3784 121.847 31.3353L124.258 30.9048C124.688 30.8186 124.968 30.8832 124.968 31.2707V37.4275C124.968 39.3219 125.657 40.1184 126.97 40.1184C128.197 40.1184 129.187 39.1927 129.187 37.7074V33.2943C129.187 32.3901 128.348 32.2394 128.348 31.7874V31.7228C128.348 31.5506 128.477 31.3784 128.735 31.3353L131.168 30.9048C131.642 30.8402 131.9 30.9048 131.9 31.2492V39.3004C131.9 40.958 132.976 40.2045 132.976 40.9364C132.976 41.3885 132.373 41.5392 131.276 41.5392C129.941 41.5392 129.51 41.1517 129.467 39.7524C128.821 40.9364 127.637 41.6253 126.174 41.6253Z" fill="black"/>
<path d="M134.14 41.41C133.861 41.41 133.688 41.2809 133.688 41.0656V41.001C133.688 40.4844 134.485 40.3982 134.485 39.5372V28.4507C134.485 27.525 133.688 27.3528 133.688 26.9438V26.8792C133.688 26.6424 133.882 26.5563 134.076 26.4702L136.401 25.3507C136.917 25.0924 137.197 25.3723 137.197 25.6952V39.5372C137.197 40.3982 138.101 40.4844 138.101 41.001V41.0656C138.101 41.2809 137.908 41.41 137.606 41.41H134.14Z" fill="black"/>
<path d="M139.579 41.41C139.299 41.41 139.106 41.2809 139.106 41.0656V40.9795C139.106 40.4844 139.924 40.3767 139.924 39.5156V34.1123C139.924 33.2082 139.106 32.9714 139.106 32.5624V32.4978C139.106 32.3471 139.213 32.2394 139.515 32.0888L141.818 30.9478C142.335 30.711 142.615 30.9693 142.615 31.3353V39.5156C142.615 40.3767 143.433 40.4844 143.433 40.9795V41.0656C143.433 41.2809 143.239 41.41 142.959 41.41H139.579ZM139.493 27.7187C139.493 26.75 140.225 26.0611 141.258 26.0611C142.292 26.0611 143.024 26.75 143.024 27.7187C143.024 28.709 142.292 29.3763 141.258 29.3763C140.225 29.3763 139.493 28.709 139.493 27.7187Z" fill="black"/>
<path d="M152.183 41.41C151.882 41.41 151.709 41.2809 151.709 41.0656V40.9795C151.709 40.4844 152.506 40.3767 152.441 39.4941L152.162 35.1887C152.011 33.1866 151.322 32.4332 150.073 32.4332C148.803 32.4332 147.942 33.4019 147.942 34.9303V39.5156C147.942 40.3767 148.846 40.4844 148.846 40.9795V41.0656C148.846 41.2809 148.674 41.41 148.373 41.41H144.842C144.541 41.41 144.369 41.2809 144.369 41.0656V40.9795C144.369 40.4844 145.251 40.3767 145.251 39.5156V34.0047C145.251 33.036 144.218 32.9929 144.218 32.4978V32.4332C144.218 32.261 144.347 32.1533 144.627 32.0242L146.887 30.9478C147.361 30.7325 147.576 30.9693 147.576 31.3568V33.1005C148.136 31.7228 149.428 30.8617 150.978 30.8617C153.109 30.8617 154.637 32.1103 154.852 35.2533L155.175 39.4941C155.24 40.3767 155.993 40.4844 155.993 40.9795V41.0656C155.993 41.2809 155.8 41.41 155.52 41.41H152.183Z" fill="black"/>
<path d="M161.368 39.5587C158.397 39.5587 156.481 37.7719 156.481 35.2748C156.481 32.713 158.505 30.8617 161.475 30.8617C162.875 30.8617 163.413 31.077 165.802 31.077C166.75 31.077 166.814 31.3568 166.814 31.7013C166.814 32.5193 165.845 32.3256 165.092 32.4978C165.953 33.1651 166.47 34.2199 166.47 35.2317C166.47 36.9754 165.501 38.2671 163.973 38.8698C165.716 39.1712 166.836 40.0108 166.836 41.4746C166.836 43.369 164.618 44.6606 161.518 44.6606C158.203 44.6606 156.395 43.1537 156.395 41.5822C156.395 41.0441 156.739 40.5059 157.493 40.5059C159.237 40.5059 158.634 43.6058 161.648 43.6058C163.37 43.6058 164.102 42.8093 164.102 41.7329C164.102 40.3982 163.025 39.5587 161.368 39.5587ZM159.129 34.4783C159.129 36.5018 159.968 38.5684 161.798 38.5684C163.047 38.5684 163.8 37.4921 163.8 35.9636C163.8 33.9401 162.982 31.8735 161.131 31.8735C159.882 31.8735 159.129 32.9283 159.129 34.4783Z" fill="black"/>
<ellipse cx="61.9233" cy="32.9311" rx="1.853" ry="1.853" fill="black"/>
<ellipse cx="61.9233" cy="39.5561" rx="1.853" ry="1.853" fill="black"/>
<path d="M45.288 3.948H48.606C50.972 3.948 52.148 5.026 52.148 6.916C52.148 8.974 50.72 9.898 48.55 9.898H46.66V14H45.288V3.948ZM46.66 8.722H48.508C49.796 8.722 50.776 8.274 50.776 6.93C50.776 5.586 49.824 5.124 48.494 5.124H46.66V8.722ZM56.7482 6.426C59.0302 6.426 60.4862 8.05 60.4862 10.332C60.4862 12.586 59.0442 14.21 56.7202 14.21C54.4102 14.21 52.9962 12.586 52.9962 10.332C52.9962 8.05 54.4662 6.426 56.7482 6.426ZM56.7202 7.532C55.2082 7.532 54.3542 8.708 54.3542 10.318C54.3542 11.956 55.1942 13.09 56.7202 13.09C58.2602 13.09 59.1002 11.956 59.1002 10.318C59.1002 8.708 58.2462 7.532 56.7202 7.532ZM61.3422 6.636H62.7282L63.5542 9.506C63.8202 10.444 64.0722 11.48 64.3662 12.572H64.3942C64.6882 11.522 64.8982 10.654 65.2202 9.478L66.0042 6.636H67.3342L68.1882 9.702C68.4402 10.626 68.6782 11.522 68.9582 12.586H69.0002C69.2522 11.634 69.5042 10.71 69.7982 9.674L70.6522 6.636H71.9542L69.6582 14H68.2162L67.3622 10.962C67.1242 10.108 66.8302 8.932 66.6622 8.288H66.6202C66.4242 9.002 66.2282 9.968 65.9202 11.004L65.0802 14H63.6242L61.3422 6.636ZM74.1091 10.612C74.1791 12.012 75.0191 13.076 76.5031 13.076C77.6231 13.076 78.3231 12.446 78.6451 11.83L79.9051 12.096C79.3451 13.356 78.0851 14.21 76.4751 14.21C74.2071 14.21 72.7931 12.6 72.7931 10.318C72.7931 8.106 74.2491 6.412 76.4751 6.412C78.8131 6.412 80.0171 8.176 80.0171 10.514V10.612H74.1091ZM78.6591 9.604C78.5611 8.386 77.7351 7.49 76.4611 7.49C75.0891 7.49 74.2631 8.442 74.1371 9.604H78.6591ZM82.9099 6.636V7.084C82.9099 7.308 82.9099 7.63 82.8959 7.84C83.2179 6.972 83.9459 6.524 84.9819 6.524L85.4579 6.538L85.6399 7.77C85.3879 7.756 85.0519 7.756 84.8839 7.756C83.2739 7.756 82.9659 8.792 82.9659 10.444V14H81.6779V7.532C81.6779 7.182 81.6779 6.916 81.6639 6.636H82.9099ZM87.4938 10.612C87.5638 12.012 88.4038 13.076 89.8878 13.076C91.0078 13.076 91.7078 12.446 92.0298 11.83L93.2898 12.096C92.7298 13.356 91.4698 14.21 89.8598 14.21C87.5918 14.21 86.1778 12.6 86.1778 10.318C86.1778 8.106 87.6338 6.412 89.8598 6.412C92.1978 6.412 93.4018 8.176 93.4018 10.514V10.612H87.4938ZM92.0438 9.604C91.9458 8.386 91.1198 7.49 89.8458 7.49C88.4738 7.49 87.6478 8.442 87.5218 9.604H92.0438ZM100.635 13.538C100.635 13.328 100.649 13.062 100.649 12.796H100.621C100.159 13.594 99.2487 14.168 98.0027 14.168C95.9727 14.168 94.5727 12.628 94.5727 10.332C94.5727 8.078 95.9167 6.426 98.0167 6.426C99.2627 6.426 100.159 7.028 100.579 7.812L100.565 6.93V3.948H101.867V13.202C101.867 13.454 101.867 13.762 101.881 14H100.635V13.538ZM98.2407 7.546C96.7847 7.546 95.9447 8.75 95.9447 10.332C95.9447 11.928 96.8127 13.09 98.2407 13.09C99.7247 13.09 100.635 11.928 100.635 10.304C100.635 8.708 99.6827 7.546 98.2407 7.546ZM107.394 14C107.408 13.65 107.408 13.342 107.408 13.034V3.948H108.71V6.496C108.71 6.888 108.696 7.406 108.696 7.812C109.13 7.056 110.04 6.426 111.258 6.426C113.358 6.426 114.702 8.078 114.702 10.332C114.702 12.642 113.316 14.168 111.272 14.168C110.012 14.168 109.13 13.608 108.64 12.796C108.654 13.006 108.654 13.272 108.654 13.496V14H107.394ZM111.02 7.546C109.592 7.546 108.64 8.68 108.64 10.304C108.64 11.942 109.536 13.09 111.034 13.09C112.462 13.09 113.33 11.928 113.33 10.332C113.33 8.736 112.49 7.546 111.02 7.546ZM122.371 6.636L119.263 14.826C118.787 16.1 118.325 16.548 116.967 16.548C116.715 16.548 116.673 16.548 116.351 16.534L116.141 15.456H116.925C117.639 15.456 117.905 15.036 118.269 13.958L115.441 6.636H116.897L118.087 9.982C118.395 10.864 118.675 11.718 118.927 12.502H118.969C119.235 11.676 119.515 10.822 119.823 9.94L120.957 6.636H122.371Z" fill="black"/>
</svg>
